<?xml version="1.0" encoding="utf-8"?>
<!-- Generator: Adobe Illustrator 22.0.1, SVG Export Plug-In . SVG Version: 6.00 Build 0)  -->
<svg version="1.1" id="圖層_1" xmlns="http://www.w3.org/2000/svg" xmlns:xlink="http://www.w3.org/1999/xlink" x="0px" y="0px"
	 viewBox="0 0 300 300" style="enable-background:new 0 0 300 300;" xml:space="preserve">
<style type="text/css">
	.st0{fill-rule:evenodd;clip-rule:evenodd;fill:#B28247;}
	.st1{fill-rule:evenodd;clip-rule:evenodd;fill:#FFFFFF;}
	.st2{fill-rule:evenodd;clip-rule:evenodd;fill:#C30D23;}
	.st3{fill:#C30D23;}
	.st4{fill:#FFFFFF;}
	.st5{font-family:'DFGuYin-W5-WIN-BF';}
	.st6{font-size:21.2505px;glyph-orientation-vertical:0;writing-mode:tb;}
</style>
<g>
	<g>
		<g>
			<path class="st0" d="M115.7,159.5c-2.1,0-4.2,0.4-6.2,1c-2.5,0.8-4.7,2-6.6,3.8c-0.6,0.5-0.9,1.2-1.4,1.8c-0.9,1.2-2,2-3.5,2.4
				c-1.5,0.4-2.8,1.1-4.2,1.8c-0.7,0.3-1.2,1-1.9,1.3c-0.8,0.4-1.6,0.6-2.4,0.7c-1.1,0.2-2-0.1-2.9-0.8c-1.5-1.1-3-2.2-3.8-4
				c-1.6-3.6-4.1-6.6-7.3-9c-1.5-1.1-3.2-2-5.1-1.8c-0.8,0.1-1.7,0.4-2.4,0.8c-1.6,1-3,2.1-4.5,3.2c-1.7,1.2-2.4,3-3.2,4.7
				c-1.4,3.1-2.7,6.3-4.1,9.5c-2.4,5.2-6.2,9-11.6,11c-8.2,3-15.9,1.9-23.1-3c-4.1-2.7-6.7-6.5-8.6-10.9c-1.5-3.4-2.8-6.8-3.6-10.5
				c-0.8-3.8-1.1-7.6,0.3-11.3c1-2.6,2.3-5,3.9-7.2c3-4.2,6.9-7.3,11.8-9c4.6-1.6,9.4-2.2,14.2-1.9c4.2,0.3,8.1,1.3,11.6,3.7
				c4.4,2.9,7.5,6.9,9,12c1.1,3.5,0.4,6.7-2.3,9.4c-3.6,3.7-8.1,5.7-13.1,6.5c-1.6,0.3-3.1-0.3-4.5-1.2c-2.6-1.7-4.7-3.9-6-6.8
				c-0.9-2-0.5-3.9,1-4.9c0.5-0.3,1-0.5,1.6-0.7c1.6-0.7,3.1-1.3,4.9-1.3c1.1,0,1.9,0.3,2.4,1.4c0.4,0.9,0.1,1.7-0.6,2.4
				c-0.6,0.5,0,0.9,0.1,1.5c0.2-0.2,0.2-0.3,0.3-0.3c2-2.5,1.6-4.2-1.4-5.4c-2.4-1-4.9-1.3-7.4-0.3c-2.8,1-4.6,3.8-4.4,7.2
				c0.2,4.9,3.3,8.9,8.3,10.7c4.9,1.8,9.4,0.9,13.6-2c4.9-3.4,9-7.4,12.1-12.5c0.8-1.3,1.7-2.5,2.7-3.7c2.7-3.3,5.4-4.1,9.4-2.5
				c4.6,1.8,7.1,5.3,7.8,10.2c0.3,2.6,0.5,5.2,1.6,7.6c1.4,3.1,3.3,4.2,6.7,4c2.4-0.1,4.3-0.9,6-2.7c1.9-2,4.3-3.3,6.9-4.3
				c3-1.2,6-1.3,9.1-0.6C115.1,159.3,115.4,159.4,115.7,159.5z"/>
			<path class="st0" d="M69.5,170.2c-0.2,0.2-0.6,0.3-0.7,0.5c-0.9,1.7-0.9,4.1,1.3,5.1c2,1,3.9,0.9,5.7-0.4
				c1.1-0.8,2.1-1.7,3.1-2.6c0.3-0.3,0.6-0.6,1-0.9c1.5-1.3,3.1-1.2,4.5,0.2c0.2,0.2,0.4,0.4,0.6,0.6c1.1,1.9,2.9,2.5,4.8,2.8
				c0.2,0,0.5,0.1,0.7,0.2c-1.3,0.6-2.7,0.9-4.1,0.8c-1.3-0.1-2.4-0.7-3.5-1.4c-0.3-0.2-0.5-0.4-0.8-0.6c-1-0.6-1.9-0.5-2.7,0.4
				c-0.6,0.8-1,1.7-1.5,2.5c-0.4,0.9-0.7,1.9-1.1,2.8c-1.4,2.8-3.9,3.8-6.9,3.9c-3.9,0.1-6.5-2-8.3-5.3c-1-1.8-1.6-3.8-1.4-5.9
				c0.3-3.4,2.3-5.5,5.1-7c3.8-2,8.5-1.3,11.3,1.8c2.5,2.8,1.4,6.8-2.2,8c-1.6,0.5-3.1,0.5-4.4-0.6c-1.1-0.9-1.3-1.9-0.8-3.3
				c0.2-0.4,0.3-0.9,0.5-1.3C69.6,170.3,69.6,170.3,69.5,170.2z"/>
		</g>
		<g>
			<path class="st0" d="M132.7,238.2c3.2,0,6.3,0.6,9.3,1.5c3.7,1.2,7,3,9.8,5.6c0.8,0.8,1.3,1.8,2,2.7c1.3,1.8,3,2.9,5.2,3.5
				c2.2,0.6,4.2,1.7,6.2,2.7c1,0.5,1.8,1.5,2.8,2c1.1,0.5,2.4,0.8,3.6,1c1.6,0.2,3-0.2,4.3-1.1c2.3-1.6,4.4-3.3,5.6-5.9
				c2.4-5.4,6.1-9.7,10.8-13.3c2.2-1.7,4.7-3,7.6-2.7c1.2,0.1,2.5,0.6,3.5,1.2c2.3,1.5,4.5,3.1,6.7,4.7c2.5,1.7,3.5,4.4,4.7,6.9
				c2.1,4.7,4,9.4,6.1,14c3.6,7.7,9.2,13.3,17.2,16.3c12.2,4.5,23.6,2.8,34.3-4.4c6-4,9.9-9.6,12.8-16.2c2.2-5,4.2-10.2,5.3-15.6
				c1.1-5.6,1.7-11.2-0.4-16.7c-1.4-3.8-3.4-7.3-5.8-10.7c-4.5-6.2-10.3-10.8-17.5-13.3c-6.8-2.4-13.9-3.2-21.1-2.8
				c-6.2,0.4-12,2-17.2,5.4c-6.5,4.4-11.1,10.3-13.4,17.8c-1.6,5.2-0.6,9.9,3.3,13.9c5.4,5.4,11.9,8.4,19.4,9.6
				c2.4,0.4,4.7-0.5,6.7-1.8c3.9-2.5,7-5.8,8.8-10.1c1.3-2.9,0.7-5.8-1.4-7.2c-0.7-0.5-1.5-0.8-2.3-1.1c-2.3-1-4.7-1.9-7.2-2
				c-1.6,0-2.9,0.5-3.5,2c-0.6,1.4-0.1,2.6,0.9,3.5c0.9,0.8,0,1.4-0.1,2.2c-0.2-0.3-0.4-0.4-0.5-0.5c-2.9-3.7-2.3-6.2,2-8
				c3.6-1.5,7.3-1.9,11-0.5c4.2,1.5,6.7,5.6,6.6,10.6c-0.2,7.2-4.9,13.2-12.3,15.9c-7.3,2.6-13.9,1.3-20.2-3c-7.3-5-13.3-11-18-18.5
				c-1.2-1.9-2.6-3.7-4-5.5c-4-4.9-8-6-13.9-3.7c-6.8,2.7-10.5,7.9-11.5,15.1c-0.5,3.8-0.8,7.7-2.4,11.2c-2.1,4.6-4.8,6.2-9.9,5.9
				c-3.5-0.2-6.3-1.4-8.9-4c-2.8-2.9-6.4-5-10.3-6.4c-4.4-1.7-8.9-2-13.5-0.8C133.5,237.9,133.1,238,132.7,238.2z"/>
			<path class="st0" d="M201.1,254c0.4,0.3,0.9,0.4,1,0.8c1.3,2.6,1.3,6-2,7.6c-2.9,1.4-5.8,1.3-8.4-0.7c-1.6-1.2-3-2.6-4.5-3.9
				c-0.5-0.4-1-0.9-1.5-1.4c-2.3-1.9-4.6-1.8-6.7,0.2c-0.3,0.3-0.6,0.6-0.9,1c-1.6,2.8-4.2,3.7-7.2,4.1c-0.3,0.1-0.7,0.1-1,0.3
				c1.9,0.9,3.9,1.3,6,1.1c1.9-0.2,3.6-1,5.2-2.1c0.4-0.3,0.8-0.6,1.2-0.9c1.5-0.9,2.9-0.8,4,0.6c0.9,1.1,1.5,2.4,2.2,3.7
				c0.6,1.3,1,2.8,1.7,4.1c2.1,4.2,5.8,5.6,10.2,5.7c5.8,0.1,9.6-3,12.2-7.9c1.4-2.7,2.3-5.6,2.1-8.7c-0.4-5-3.4-8.2-7.6-10.4
				c-5.6-3-12.6-1.9-16.7,2.7c-3.7,4.2-2.1,10.1,3.3,11.8c2.3,0.7,4.6,0.8,6.6-0.9c1.6-1.4,2-2.8,1.1-4.8c-0.3-0.6-0.5-1.3-0.7-1.9
				C200.9,254.2,201,254.1,201.1,254z"/>
		</g>
		<g>
			<path class="st1" d="M155.7,223.1c-2.6,0.8-4.9,1.5-7.3,2.3c-2.4,0.7-4.8,1.4-7.3,1.6c-2.8,0.1-5.5,0.9-8.3,0.9
				c-1.2,0-2.8,0.2-3.8-1.3c-0.4-0.6-0.9-1-1.5-1.6c0.8-0.2,1.4-0.5,2-0.6c1.1-0.2,2.2-0.2,3.2-0.6c1.6-0.6,3.2-1.3,4.8-2
				c0.5-0.2,1-0.3,1.4-0.5c2.4-1.2,4.7-2.5,7.1-3.7c2-1,4.1-2,6.2-3c0.8-0.4,1.5-0.8,2.3-1.1c0.8-0.3,1-0.9,1-1.7c0-1.7,0-3.4,0-5.4
				c-1.2,0.7-2.2,1.2-3.1,1.8c-2.1,1.3-4,2.8-6.2,4.1c-1.5,0.9-3.3,1.3-4.9,2.1c-0.9,0.4-1.7,1-2.5,1.5c-0.3,0.2-0.7,0.3-1.1,0.3
				c-0.2,0-0.5-0.1-0.8,0c-1.3,0.3-2.1,0-2.8-1.1c-1-1.7-1.5-3.5-1.8-5.5c0-0.2,0.3-0.5,0.6-0.7c0.3-0.2,0.8-0.2,0.9-0.4
				c0.7-1.1,1.8-1.4,2.9-1.8c1.4-0.5,3-0.7,4.2-2c0.5-0.6,1.5-0.9,2.3-1.3c1.5-0.6,3.1-1.1,4.5-1.8c1.8-0.8,3.5-1.7,5.2-2.5
				c0.8-0.4,1.5-0.8,2.2-1.2c0.3-0.2,0.5-0.6,0.6-0.9c0-2.1,0-4.1,0-6.2c0-0.3-0.1-0.5-0.1-0.9c-1.3,0.6-2.4,1.2-3.5,1.7
				c-1.2,0.5-2.4,0.9-3.6,1.4c-0.5,0.2-0.9,0.6-1.3,1c-0.7,0.8-1.4,1.7-2.2,2.4c-0.6,0.6-1.4,0.9-2.1,1.3c-0.1,0-0.1,0-0.2,0.1
				c-0.6,0.4-1.3,1.2-1.7,1.1c-1.6-0.6-3.4-0.7-4.8-2c-0.8-0.8-0.7-1.7-0.5-2.6c0.1-0.4,0.3-0.8,0.2-1.1c-0.3-1.3-0.1-2.3,1.2-2.9
				c0.1-0.1,0.2-0.6,0.1-0.9c-0.2-0.9,0.1-1.4,1.1-1.3c1.5,0,1.8-0.4,1.1-1.9c0.3,0,0.6-0.1,0.8,0.1c1.8,1.4,3.6,0.8,5.5,0
				c0.3-0.1,0.6-0.3,0.8-0.4c2.7-1,5.3-2,8-3.1c1.5-0.6,1.5-0.7,1.4-2.4c-0.1-1,0-1.9-0.1-2.9c0-0.6-0.2-0.8-0.9-0.7
				c-1.8,0.5-3.7,0.9-5.5,1.3c-1.8,0.4-3.7,0.8-5.6,1.2c-1.8,0.4-3.5,0.7-5.3,1.2c-1.1,0.3-3.2-1.1-3.4-2.4c0-0.3,0.6-0.7,1-0.8
				c1.6-0.6,3.3-1.1,5-1.6c1.1-0.3,2.2-0.6,3.4-0.9c2.9-0.8,5.8-1.6,8.7-2.3c0.8-0.2,1.5-0.4,2.2-0.7c0.3-0.1,0.6-0.5,0.6-0.7
				c0.3-3.1,0.5-6.1,0.7-9.2c0-0.2-0.1-0.3-0.1-0.6c-2.6,0.9-4.8,2.2-6.9,3.9c-0.3,0.2-0.6,0.3-1,0.5c-0.5,0.3-0.9,0.6-1.4,0.8
				c-0.5,0.2-1.1,0.4-1.7,0.4c-0.6,0-1.2-0.2-1.7-0.4c-0.5-0.3-1.2-0.7-1.3-1.2c-0.6-2.6-1-2.2,1.4-3.3c1.7-0.8,3.4-1.8,5.1-2.6
				c1.8-0.9,3.7-1.6,5.5-2.4c0.7-0.3,1.4-0.5,1.9-0.9c0.4-0.3,0.8-0.8,0.9-1.3c0.3-2.4,0.4-4.8,0.7-7.3c0.4-3.1,0.9-6.2,1.4-9.3
				c0.3-1.5,0.6-3,0.9-4.5c0.1-0.5,0.6-1,0.7-1.5c0.1-0.7,0-1.5-0.1-2.4c0.6-1.3,1.4-2.7,2.1-4.2c0.1-0.2,0.2-0.4,0.2-0.6
				c-0.3-1.3,0.8-1.9,1.3-2.8c0.1-0.1,0.5-0.1,0.7-0.1c0.4,0,0.7,0.2,1.1,0.2c0.7,0,1.5-0.3,1.9,0.7c0,0.1,0.4,0.1,0.5,0.2
				c0.6,0.4,1.2,0.9,1.8,1.4c0.4,0.3,0.7,0.8,1.1,1c1.9,1.1,3,2.6,3.2,4.8c0,0.3,0,0.6,0.1,0.8c0.4,0.9,0.3,1.6-0.3,2.4
				c-0.1,0.2-0.2,0.5-0.2,0.8c0.2,1.5-0.8,2.2-1.8,3c-0.4,0.4-0.9,0.7-1.4,1.1c0.4,0.9-0.3,1.5-0.7,2.3c-0.8,1.3-1.2,2.8-1.7,4.3
				c-0.5,1.6-0.2,3.5-1.4,5c-0.3,0.4-0.3,1.1-0.4,1.9c0.7-0.1,1.1-0.1,1.6-0.2c3.8-1,7.6-1.5,11.6-1.1c1.9,0.2,3.8,0.5,5.7,0.9
				c1,0.2,2,0.7,2.9,1.2c0.4,0.2,0.8,0.7,0.9,1.2c0.4,1.4,0.6,2.8,0,4.2c-0.4,1-0.9,2.1-1.3,3.1c-0.1,0.3-0.1,0.6-0.1,0.9
				c0.3,0,0.5,0,0.8,0c0.9,0,1.9-0.1,2.8,0.1c0.3,0,0.6,0.6,0.6,1c0,0.4-0.3,0.8-0.6,1c-1.1,0.7-2.3,1.4-3.5,2
				c-0.6,0.3-1.2,0.6-1.9,0.9c-1.7,0.8-3.4,1.7-5.2,2.5c-1.7,0.8-3.4,1.4-5.1,2.2c-0.5,0.2-0.8,0.7-1.3,1c0,0.1,0.1,0.2,0.1,0.4
				c1.3,0.2,2.5,0.4,3.8,0.5c0.7,0,1.3-0.1,1.7,0.6c0.2,0.4,0.6,0.7,1,0.9c1.1,0.5,1.2,1.4,0.8,2.3c-0.4,1-0.9,2.1-1.8,2.8
				c-1.3,1.1-2.8,1.5-4.4,1.9c-0.2,0-0.3,0.2-0.4,0.2c-0.4,0.2-0.9,0.5-1.3,0.4c-2.1-0.7-3.8,0.7-5.6,1.3c-0.9,0.3-1.8,0.5-2.6,0.9
				c-1,0.4-2,1-3,1.5c-0.4,0.2-0.7,0.3-1.1,0.5c-0.9,0.3-1.6,0.7-1.7,1.8c-0.2,1.6-0.5,3.2-0.7,4.9c-0.1,0.5,0,1.1,0,1.8
				c0.5-0.1,0.9-0.2,1.2-0.3c4.5-2.1,9-4.4,13.6-6.4c1.7-0.7,3.4-1.3,5-2.2c0.9-0.5,2.2-1.2,3.5-0.2c0.5,0.4,1.4,0.2,2.1,0.2
				c0.2,0,0.4,0.1,0.7,0.2c-0.3,0.2-0.4,0.3-0.6,0.4c-0.8,0.2-1.1,0.6-0.9,1.4c0.3,1.7-1.2,3.6-2.7,3.6c-0.2,0-0.5,0-0.6-0.1
				c-0.6-0.9-1.1-0.6-1.6,0.1c-0.5-0.4-1-0.9-1.5-1.2c-0.9-0.6-1.7-0.4-2.5,0.2c-1.6,1.3-3,2.7-4.6,4c-1.3,1.1-2.5,2.1-3.9,3.1
				c-1.7,1.3-3.3,2.8-5.2,3.7c-2.4,1.2-3,2.9-2.6,5.3c0.2,1,0.1,2,0.2,3.3c0.5-0.1,0.9-0.1,1.3-0.3c5.4-2.8,10.9-5.4,16.6-7.7
				c0.4-0.2,0.7-0.5,1-0.7c2.4-2,5.2-2.8,8.2-2.8c1.1,0,2.4-0.4,3.5,0.4c1.2,0.9,1.4,1.9,0.2,2.8c-1.3,0.9-2.7,1.6-4.2,1.9
				c-1,0.2-1.9,0.7-2.8,1.2c-2.3,1.3-4.7,2.6-6.9,4.1c-1.6,1.1-2.9,2.5-4.5,3.6c-2.9,2.2-5.8,4.3-8.7,6.4c-0.6,0.5-1.3,0.9-2,1.2
				c-0.9,0.4-1,1.1-1.1,1.9c-0.1,3.1-0.2,6.2-0.3,9.3c-0.1,2.5-0.3,5-0.5,7.5c-0.1,2.6-0.3,5.1-0.3,7.7c0,2.3,0.2,4.6,0.3,6.9
				c0.1,1.3,0,2.6,0.2,3.9c0.5,3,1,5.9,1.6,8.8c0.3,1.5,0.6,3.1,1,4.6c0.4,1.4,0.9,2.8,1.2,4.3c0.4,2.2,0.7,4.4,1.1,6.6
				c0.3,1.8,0.6,3.7,0.9,5.5c0,0.3,0.2,0.6,0.1,0.8c-0.7,1.7,0.2,3,1,4.3c1.1,1.8,0.5,3.8-1.3,4.8c-0.8,0.4-1.5,0.2-1.9-0.6
				c-0.6-1-1.2-2.1-1.7-3.1c-0.1-0.2-0.1-0.5-0.1-0.8c0.2-1.8,0.5-3.6,0.6-5.4c0.1-1.3,0-2.7-0.2-4c-0.6-3.2-1.5-6.4-1.9-9.6
				c-0.6-4.3-1.1-8.6-1.5-12.9c-0.3-3.1-0.6-6.2-0.8-9.2c-0.2-2.4-0.2-4.9-0.4-7.3c-0.2-2.6-0.4-5.1-0.6-7.7
				c-0.2-4.1-0.5-8.2-0.7-12.3C155.9,224,155.8,223.6,155.7,223.1z M165,169c2.7-0.8,5.2-1.5,7.6-2.3c0.2-0.1,0.4-0.3,0.5-0.5
				c1.7-2.3,3.4-4.6,5-7c0.8-1.2,1.5-2.5,1.7-4.2c-1.4,0.1-2.7,0.1-3.8,0.3c-2.7,0.6-5.4,1.3-8,2c-1.3,0.3-1.5,0.6-1.7,2
				c-0.2,1.9-0.4,3.9-0.7,5.8C165.5,166.4,165.3,167.5,165,169z M162.5,179.4c0.2,0,0.4,0.1,0.6,0c1.6-0.5,3.1-1.1,4.7-1.7
				c0.8-0.3,1.6-0.4,2.2-0.9c1-0.8,1.7-1.9,2.6-2.8c0-0.1-0.1-0.2-0.1-0.3c-0.4,0.2-0.9,0.3-1.3,0.5c-0.9,0.6-1.6,1.3-2.6,1.7
				c-0.9,0.4-2,0.4-3,0.5C164,176.6,162.8,177.7,162.5,179.4z"/>
			<path class="st1" d="M106.4,212.9c0.7-1.1,1.5-2.1,2.2-3.2c2.3-3.6,4.7-7.1,6.9-10.7c2.6-4.1,5-8.2,7.6-12.3c1-1.6,2.3-3,3.4-4.6
				c0.2-0.3,0.5-0.7,0.7-1c0.1,0,0.2,0.1,0.3,0.1c-0.1,1.3-0.3,2.5-0.5,3.8c0,0.2-0.1,0.4-0.1,0.6c-0.1,1.1-0.6,2.1-1.1,3.1
				c-0.9,1.9-1.4,4-2,6.1c-0.7,2.2-0.7,4.7-2.1,6.8c-0.7,0.9-0.9,2.2-1.4,3.3c-0.8,1.8-1.4,3.6-2.3,5.4c-1.8,3.4-3.4,7-5.7,10.2
				c-1.8,2.5-3.8,5-7.2,5.6c-1.6,0.3-2.8-0.3-4.1-1c-0.6-0.3-1-0.9-1.5-1.3c-1.8-1.7-2.5-3.9-2.7-6.2c-0.3-3.5,0.2-7,1.4-10.4
				c1.9-5.5,5.2-10.2,9.1-14.4c0.6-0.6,1-1.3,1.6-1.9c2.5-2.9,5.1-5.9,7.6-8.8c0.4-0.4,0.8-0.8,1.2-1.3c-0.1-0.1-0.2-0.2-0.3-0.3
				c-1.4,1-2.8,2.1-4.2,3.1c-0.4,0.3-0.9,0.6-1.3,1c-1.1,0.9-2.2,1.8-3.3,2.8c-2,1.9-4.1,3.7-5.9,5.9c-0.9,1.1-1.6,1.9-3,2.3
				c-3.1,0.8-5.1,0-6.6-2.9c-0.4-0.9-0.8-1.8-1-2.8c-0.1-0.2,0.2-0.8,0.4-0.8c1.9-0.3,3-1.9,4.4-2.9c2.3-1.5,4.4-3.1,6.7-4.7
				c1.5-1.1,3.1-2.3,4.6-3.3c2.5-1.7,5-3.4,7.6-5c2.5-1.5,5.1-2.9,7.6-4.4c1.4-0.8,2.6-1.7,4.1-2.4c0.8-0.4,1.8-0.4,2.7-0.5
				c0.8-0.1,1.7-0.2,2.4,0c0.6,0.2,1.2,0.7,1.5,1.3c0.2,0.4,0.1,1.2-0.2,1.6c-0.6,0.7-1.4,1.1-2.2,1.6c-0.4,0.3-0.7,0.7-1,1
				c-0.1,0.1-0.1,0.4-0.3,0.4c-2.3,1.5-3.2,4.3-5.1,6.2c-0.8,0.8-1.5,1.9-2.2,2.8c-0.3,0.4-0.9,0.7-1.2,1.1c-1.2,1.7-2.3,3.4-3.4,5
				c-1.7,2.6-3.5,5.2-5.2,7.8c-0.7,1-1.1,2.2-1.7,3.3c-0.3,0.5-0.9,0.8-1.1,1.3c-0.8,1.6-1.4,3.3-2.3,4.8c-1.1,1.7-1.1,3.7-1.8,5.5
				c-0.4,1-0.4,2.2-0.6,3.3C106.1,212.8,106.2,212.8,106.4,212.9z"/>
			<path class="st1" d="M130.2,152.9c-0.4,1-0.8,2-1.3,2.9c-0.2,0.3-0.8,0.4-1.2,0.5c-0.1,0-0.3-0.1-0.5-0.1c-3-0.4-3.3-0.6-3.8-3.6
				c-0.2-1.2-1.5-2.3-2.7-2.2c-0.1,0-0.3,0-0.4,0c-3-1.9-6.5-1.6-9.7-2.2c-1.2-0.2-2.5-0.6-3.6-1.2c-0.7-0.4-1.3-1.3-1.7-2.1
				c-0.5-0.9-0.7-2-1.1-3c-0.3-0.6-0.1-1,0.4-1.4c1.7-1.1,3.5-1.4,5.5-1.2c2.2,0.2,4.1,0.9,6.1,1.8c2.7,1.2,5.2,2.5,7.7,3.9
				c1.8,1,3.5,2.3,4.9,3.8C129.9,149.9,130.3,151.3,130.2,152.9z"/>
		</g>
		<g>
			<path class="st1" d="M140.4,83.7c-0.8-1.6,0.4-2.4,1.4-3.5c-5.3,0.2-9.9-0.8-13.1-5.4c0.1-0.1,0.5-0.2,1.2-0.6
				c-0.5-0.2-0.8-0.3-1.1-0.4c0-0.1,0-0.2,0-0.3c0.6-0.4,1.1-0.9,1.8-1c3.2-0.5,6.4-0.8,9.8-1.2c0.1-0.5,0.5-1.2,0.3-1.9
				c-0.3-1.8,0.6-3.2,1.1-4.7c1-3,1.8-6.1,2.7-9.1c0.1-0.2,0-0.4,0-0.7c-0.2,0-0.4,0-0.5,0.1c-0.8,0.9-1.7,1.7-2.5,2.6
				c-0.3,0.3-0.5,0.5-0.7,0.8c-1.4,1.6-2.7,3.1-4.1,4.7c-0.6,0.6-1.1,1.3-1.6,2c-0.8,1.1-1.5,2.3-2.4,3.3c-1.3,1.6-2.6,3.2-4.4,4.3
				c-0.5,0.3-0.9,0.9-1.4,1.3c-1.4,1.3-2,1.2-3.5-0.2c-2.4-2.3-2.3-5.2-1.5-8c0.9-3.2,2.2-6.4,3.4-9.5c0.4-1.1,1-2.2,1.5-3.4
				c0.1-0.4,0.2-0.7,0.5-1.4c-1.2,0.5-2,0.8-2.8,1.1c-2.5,1.1-5,2.3-7.6,3.2c-1.4,0.5-3,0.6-4.4,1.1c-2.8,0.9-5.5,1.9-8.3,2.8
				c-1.5,0.5-3.1,0.8-4.7,1.2c-0.1,0-0.2,0-0.3,0.1c-2,0.9-3.9,1.7-5.9,2.6c-2,0.9-3.7,2.2-5.3,3.7c-1.5,1.4-3,2.7-4.4,4.1
				c-1.8,1.7-3.5,3.4-5.2,5.2c-1.5,1.5-2.9,3.1-4.3,4.6c-1.4,1.4-2.7,2.9-4.2,4.2c-1.2,1.1-2.7,2-3.8,3.2c-1,1.2-2.6,1.9-2.9,3.8
				c-0.1,0.8-0.8,1.4-1,2.2c-0.9,2.4-2.6,4.1-4.4,5.7c-1.3,1.1-2.1,1.1-3.6,0.2c-0.8-0.5-1.6-0.9-2.3-1.5c-0.2-0.2-0.5-0.7-0.4-0.9
				c0.6-1.9,1.3-3.9,3.5-4.5c1.2-0.3,1.7-1.3,2.2-2.2c0.3-0.5,0.5-1.2,1.3-0.8c0.1,0,0.4-0.1,0.5-0.3c0.8-1.2,1.8-1.7,3.3-1.5
				c0.4,0,1-0.3,1.4-0.6c1-1,2-2.1,3-3.2c1.1-1.1,2.3-2.2,3.4-3.4c1.3-1.3,2.6-2.7,3.9-4c1.4-1.4,2.8-2.8,4.3-4.1
				c3.3-3.1,6.6-6.1,9.9-9.1c0.5-0.5,0.7-0.8,0.4-1.5c-0.6-1.3-0.2-2.1,0.9-3c0.5-0.4,0.8-0.9,1.2-1.4c0.5-0.6,1.1-1.1,2.1-0.8
				c0.3,0.1,0.7,0.1,1.1,0c1.8-0.6,3.6-1.2,4.7-3.1c0.4-0.7,1.5-0.9,2.2-1.5c3-2.3,6-4.7,9-7.1c1.8-1.4,3.7-2.6,5.5-3.9
				c0.7-0.5,1.3-1.2,2-1.7c0.8-0.6,1.8-1.2,2.6-1.8c1.3-0.9,2.5-1.9,3.8-2.8c2.1-1.5,4.2-3,6.2-4.5c2.2-1.6,4.4-3.4,6.6-4.9
				c2.8-1.9,5.6-3.7,8.5-5.6c2-1.4,4-2.8,6.1-4.2c1.4-1,2.8-1.9,4.1-3.1c-0.4,0-0.7-0.1-1.1,0c-2,0.5-3.9,1-5.9,1.5
				c-0.9,0.2-1.8,0.6-2.7,0.9c-1.9,0.6-3.9,1.2-5.8,1.9c-1.5,0.5-3,1.2-4.5,1.8c-0.7,0.2-1.4,0.4-2,0.6c-2.1,0.8-4.1,1.8-6.2,2.6
				c-1.7,0.6-3.5,1-5.1,1.7c-1.1,0.5-2.1,1.3-2.9,2.2c-0.6,0.6-1.1,1-1.8,0.8c-0.5,0.4-0.9,0.7-1.2,1.1c-0.4,0.5-0.8,1-1.2,1.5
				c-0.1,0.1-0.2,0.4-0.3,0.4c-1.6,0.5-3.2,1.4-4.7,1.3c-0.9,0-2.2,0.6-3.1-0.5c0-0.1-0.3,0.1-0.5,0.1c-0.5-0.1-1,0-1.3-0.3
				c-0.5-0.5-0.9-0.3-1.4-0.1c-1.5,0.8-2.4,0.5-2.8-1.2c-0.7,0-1.7,0.5-1.8-0.9c0-0.1-0.2-0.2-0.4-0.2c-0.9-0.2-0.9-0.8-0.9-1.4
				c0-0.4-0.1-0.8-0.2-1.3c-0.1,0-0.2,0-0.3,0c-0.1,0.3-0.3,0.6-0.4,1c-0.2-0.2-0.4-0.2-0.4-0.3c0-1.3-0.3-2.6-1.1-3.7
				c-0.1-0.1-0.2-0.3-0.2-0.4c0.3-1.2,0.7-2.4,0.9-3.6c0.2-0.9,0.3-1.9,0.5-3c0.4,0.3,0.7,0.4,0.9,0.6c0.6-1,1.5-0.9,2.4-0.9
				c0.7,0,1.4-0.2,2.3-0.4c0.3,0.1,1,0.2,1.5,0.5c0.7,0.5,1.1,0.1,1.8-0.2c1-0.4,1.9-0.7,3.1-0.3c0.7,0.2,1.7-0.2,2.6-0.4
				c1.8-0.3,3.6-0.6,5.5-0.8c2.7-0.4,5.3-0.8,8-1c2.4-0.2,4.8-0.2,7.2-0.3c0.9-0.1,1.7-0.3,2.5-0.5c5.8-1.3,11.6-2.7,17.4-4
				c3.2-0.7,6.5-1.3,9.7-1.9c2.7-0.5,5.5-0.9,8.2-1.5c0.9-0.2,1.7-0.7,2.5-1.2c0.6-0.3,1.2-0.8,1.9-1.1c0.2-0.1,0.4,0,0.6,0
				c0.2,0,0.3,0.3,0.5,0.3c2.7-0.4,3.3,2.1,4.8,3.5c1,1,1.6,2.1,1.6,3.5c0.1,1.4-0.6,2.3-1.8,2.9c-0.7,0.3-1.3,0.9-2,1.3
				c-2,1.1-4.1,2.1-6.1,3.2c-1.8,1-3.6,2-5.5,3c-1.8,0.9-3.6,1.8-5.4,2.7c-0.6,0.3-1.3,0.7-1.9,0.8c-2.1,0.4-3,1.8-3.3,3.8
				c-0.5,2.6-1,5.2-1.5,7.7c-0.3,1.4-0.1,1.6,1.2,1.3c3.1-0.6,6.1-1.1,9.2-1.8c1.8-0.4,3.5-1,5.2-1.7c2.5-1,4.9-2.2,7.4-3.2
				c1.1-0.5,2.2-0.9,3.4-1.4c0.1,0,0.2-0.1,0.3-0.2c0.4-0.3,0.7-1,1.1-1c1.4-0.1,3-0.2,4.1,0.7c0.7,0.5,0.9,1.6,1.2,2.5
				c0.1,0.4,0,0.8,0,1.3c1.7-0.1,3.3-0.3,4.9-0.3c3.2,0,6.5,0,9.7,0.3c1.3,0.1,2.6,0.8,3.9,1.4c0.7,0.3,1.2,0.9,1,1.9
				c-0.2,0.7,0,1.6-0.2,2.3c-0.3,1.6-1.6,2.3-2.9,3c-1.5,0.8-3,1.5-4.4,2.4c-2.2,1.3-4.6,2.4-7.1,3.2c-1,0.3-2.1,0.5-3.1,0.6
				c-0.4,0-1-0.5-1.2-0.9c-0.1-0.2,0.3-0.9,0.7-1.2c1.9-1.1,3.9-2.1,5.8-3.2c1.5-0.8,2.9-1.7,4.3-2.7c0.6-0.5,1.1-1.2,1.8-2
				c-1.3-0.2-2.3-0.3-3.3-0.4c-3.1-0.2-6.2-0.4-9.2-0.6c-1.5-0.1-2.7,0.4-4.1,1.3c-2.5,1.6-4.2,4.1-6.6,5.8c-1.5,1-2.6,2.8-3.8,4.2
				c-1,1.2-2.1,2.4-3.1,3.6c-0.1,0.1-0.1,0.1-0.2,0.2c-0.8,1.5-1.5,3-2.4,4.5c-1.1,1.8-1.5,3.9-2.1,5.9c-0.3,0.9-0.3,1.7,0.5,2.5
				c1.4,1.4,1.7,5.1,0.5,6.4c-0.6,0.7-1.5,1.1-2.2,1.6c-1.9,1.2-2.5,1-4.3-0.5c-0.8-0.7-0.9-1.4-1.1-2.3c-0.5-2.2,0.1-4.2,0.7-6.3
				c0.6-1.8,0.8-3.7,1.6-5.4c1.3-3.2,3-6.2,5.3-8.9c1.3-1.5,2.3-3.2,3.5-4.8c1.2-1.6,2.6-3.1,3.8-4.6c0.6-0.8,1-1.6,1.6-2.4
				c0-0.1-0.1-0.2-0.1-0.3c-0.7,0.1-1.4,0-2,0.3c-1.3,0.6-2.6,1.2-3.9,1.9c-1.8,0.9-3.7,1.8-5.5,2.9c-2.6,1.5-5.3,3.1-7.8,4.7
				c-1.5,1-2.7,2.4-4.3,3.3c-2.6,1.6-3.1,4.3-4.2,6.7c-0.5,1.3-1,2.7-1.7,4c-1.2,2.2-1.5,4.6-2,7c-0.1,0.6-0.5,1.1-0.6,1.6
				c-0.2,1.1-0.3,2.2-0.4,3.3c0,0.1,0.3,0.3,0.6,0.4c0.8,0.3,1.7,0.5,2.5,1c1.2,0.6,2.4,1.4,3.5,2.1c0.3,0.2,0.5,0.6,0.5,0.9
				c0.2,1.7-0.1,3.2-1.5,4.4c-0.8,0.7-1.5,1.5-2.8,1.5c-0.7,0-1.4,0.6-1.9,1C142.2,83.8,141.3,83.8,140.4,83.7z M138.6,34.3
				c-0.1-0.1-0.2-0.2-0.3-0.3c-0.6,0.2-1.2,0.4-1.8,0.6c-0.8,0.4-1.6,0.8-2.4,1.2c-2.1,1-4.3,2-6.3,3c-2.3,1.2-4.4,2.6-6.7,3.8
				c-1.9,1-3.9,1.7-5.7,2.8c-2.6,1.6-5,3.5-7.4,5.3c-1,0.7-2,1.4-3.1,2.3c0.3,0,0.5,0.1,0.6,0.1c2.5-0.9,4.9-1.7,7.3-2.6
				c3.4-1.3,6.7-2.7,10.1-3.9c2.6-1,5.2-1.9,7.8-2.8c0.8-0.3,1.7-0.6,1.8-1.7c0-0.1,0.2-0.2,0.3-0.3c0.5-0.5,1-1,1.4-1.5
				c0.9-1.1,1.7-2.2,2.5-3.3C137.3,36.1,138,35.2,138.6,34.3z M148,42.4c-1.1,0.3-2,0.5-2.8,0.8c-2.5,0.8-5,1.7-7.3,3.1
				c-1.9,1.1-3.4,2.5-4.3,4.5c-1.3,2.7-2.6,5.5-3.8,8.2c-0.3,0.7-0.4,1.5-0.6,2.2c1-0.3,1.9-0.5,2.5-1.1c1.9-1.5,3.7-3.1,5.5-4.7
				c2.8-2.4,5.4-4.9,8.3-7.3C147.4,46.7,147.7,44.7,148,42.4z M153.4,26.2c-2.2,1.1-4.2,2.1-6.3,3.1c-1.9,1-3.7,2-5.6,3
				c-0.3,0.2-0.6,0.6-0.7,1c-0.3,1.3-0.5,2.7-0.9,4.1c-0.3,1.1-0.7,2.2-1.2,3.5c0.4-0.1,0.7-0.1,0.9-0.1c2.6-0.7,5.2-1.4,7.8-2.3
				c0.9-0.3,2.3-0.2,2.5-1.6c0.2-0.9,0.4-1.8,0.7-2.7C151.6,31.5,152.5,29,153.4,26.2z M157.5,39.5c0-0.1-0.1-0.2-0.1-0.3
				c-1.3,0.3-2.7,0.6-3.9,1.1c-1.4,0.5-1.8,1.4-1.5,2.8C153.9,41.9,155.7,40.7,157.5,39.5z"/>
			<path class="st1" d="M137.9,96.6c-2,1.1-3.9,2.2-5.9,3.3c-1.5,0.8-3,1.6-4.5,2.3c-2,0.9-4.1,1.9-6.2,2.6c-1,0.3-2.3,0-3.4,0.3
				c-2.3,0.6-3.9-0.8-5.5-1.9c-0.5-0.3-0.9-1.2-0.8-1.8c0.2-1.1,0.4-2.3,1.9-2.5c3.5-0.6,6.7-2,9.9-3.3c2.6-1.1,5.2-2.1,7.8-3.2
				c2.8-1.3,5.5-2.7,8.4-4c3-1.3,6-2.6,9.1-3.8c1.5-0.6,3.1-0.9,4.7-1.4c0.4-0.1,0.8-0.3,1-0.6c0.5-0.6,1-1.2,2-0.9
				c0.2,0.1,0.6-0.2,0.7-0.4c0.4-0.7,0.9-0.7,1.6-0.5c0.5,0.1,1.2,0,1.7,0.1c0.8,0.1,1.6,0.3,2.3,0.6c1.2,0.6,2.5,1.3,3.6,2.2
				c2.1,1.6,1.7,4.7-0.7,5.7c-2.4,1.1-4.9,2-7,3.6c-2.9,2.2-5.9,4.1-8.1,7.1c-1.3,1.8-2.7,3.5-4.1,5.3c-0.2,0.2-0.3,0.5-0.4,0.8
				c-0.2,0.4-0.5,1.2-0.4,1.2c0.6,0.3,1.3,0.7,1.9,0.8c2.5,0.1,5-0.2,7.3-1c3.1-1,6-2.2,8.6-4.1c1.2-0.8,1.1-1.1,0-2
				c-1.3-1.1-2.5-2.2-3.7-3.4c-0.4-0.4-0.3-1.3-0.4-1.9c-0.5-1.8,0.9-1.9,2-2.6c1.7-1,3-0.5,4.5,0.2c1.3,0.5,2.7,0.8,4.1,1.1
				c4.7,1,9.3,2.2,13.3,4.9c2.5,1.7,4.6,3.7,5,7c0.2,2.1-0.4,3.6-2.2,4.7c-0.2,0.1-0.4,0.4-0.5,0.6c-1.1,1.7-2.6,2.2-4.6,2
				c-2.1-0.2-4.3-0.9-6.5-0.4c-0.8,0.2-2.8-1.3-3-2.1c-0.2-0.8,0.3-1.5,1.3-1.9c0.7-0.3,1.5-0.7,2.1-1.1c1-0.7,1-1.5-0.1-2.1
				c-1.4-0.8-2.9-1.4-4.4-1.9c-0.3-0.1-0.9,0.2-1.2,0.4c-1.4,1.2-2.8,2.4-4.2,3.6c-1.4,1.3-2.9,2.5-4.3,3.8c-2.5,2.2-5.5,3.4-8.8,4
				c-2.6,0.5-5.2,0.9-7.9,0.5c-2.2-0.3-4.4-0.8-6.3-2c-1.5-0.9-2.4-2.4-2.8-4c-0.4-1.7-0.4-3.5-0.4-5.3c-0.1-2.6,1.5-4.6,2.7-6.7
				c0.2-0.4,0.6-0.9,0.8-1.3C138.1,96.8,138,96.7,137.9,96.6z"/>
		</g>
		<g>
			<g>
				<path class="st2" d="M206.3,118.7c1.7-9.2,14.9-22.4,18.8-16.1c3.9,6.3,17.3,13,7.9,28.2c-9.4,15.2-12.2,25-21.7,13.9
					C199.5,130.6,203.5,133.4,206.3,118.7z"/>
				<g>
					<g>
						<g>
							<g>
								<g>
									<path class="st3" d="M202.6,118.1c0.1-0.2-0.6-0.2-0.7-0.3C202,118.2,202.8,118.1,202.6,118.1z"/>
									<polygon class="st3" points="203.4,121.2 203.2,121.1 203.7,121.7 									"/>
									<path class="st3" d="M202.7,123.9c1.1,0,0.1-1,0.6-1.4l0.3,0l-0.8-0.4C202.8,122.6,203.2,123.5,202.7,123.9z"/>
									<path class="st3" d="M200.1,124.6c0.4,0,0.3,0.4,0.2-0.3c-0.1,0-0.1,0-0.1,0C200.2,124.4,200.1,124.5,200.1,124.6z"/>
									<path class="st3" d="M200.2,124.4C200.2,124.1,199.8,124.4,200.2,124.4L200.2,124.4z"/>
									<path class="st3" d="M200,125.7l-0.3-0.5c-0.3,0-0.4,0.3-0.6,0.1C199.3,125.8,199.6,125.8,200,125.7z"/>
									<path class="st3" d="M200.7,126.3l-0.1-0.2C200.5,126.1,200.4,126.1,200.7,126.3z"/>
									<path class="st3" d="M200.4,125.5l0.2,0.5c0.2,0,0.5,0.1-0.1-0.2C200.8,126,200.6,125.8,200.4,125.5z"/>
									<path class="st3" d="M200.6,125.4c0.3-0.1,0.5-0.4,0.8,0.1C201.4,124.7,200.7,124.6,200.6,125.4z"/>
									<path class="st3" d="M203.8,124.3l0.4-0.2l-0.3-0.3C204.1,123.9,203.5,124.2,203.8,124.3z"/>
									<path class="st3" d="M198.8,128.2c0.2,0.1,0.6,0,0.9,0l-0.2-0.4C199.3,127.9,199.1,128.2,198.8,128.2z"/>
									<path class="st3" d="M199.7,128.2l0.3,0.6C200.2,128.4,200,128.2,199.7,128.2z"/>
									<polygon class="st3" points="201.9,126.7 201.2,125.8 201.8,126.8 									"/>
									<polygon class="st3" points="198.4,130.4 197.9,130 198.6,130.8 									"/>
									<path class="st3" d="M198.4,132.2c-0.5-0.3-0.7,0.5-1,0.2c0.1,0.6,0.6,1,1,1.3C198.1,133.3,198.1,132.8,198.4,132.2z"/>
									<path class="st3" d="M199,134.2c-0.2-0.2-0.4-0.3-0.6-0.5C198.5,133.9,198.7,134.1,199,134.2z"/>
									<path class="st3" d="M199.7,129.7c-0.1,0-0.5,0.1-0.7,0.4l0.7-0.1C199.7,129.9,199.7,129.8,199.7,129.7z"/>
									<path class="st3" d="M199.7,129.9L199.7,129.9c-0.1,0.2-0.1,0.4-0.1,0.5C199.6,130.3,199.6,130.2,199.7,129.9z"/>
									<path class="st3" d="M199.7,129.6C199.7,129.7,199.7,129.7,199.7,129.6C199.8,129.7,199.8,129.7,199.7,129.6z"/>
									<path class="st3" d="M201,127.7c0.3,0.4,0.5,1,1.2,0.6C201.8,128,201.4,128.2,201,127.7z"/>
									<path class="st3" d="M200.6,129.5c0.1-0.2,0.2-0.4,0.2-0.5c-0.2,0-0.4,0-0.6-0.2L200.6,129.5z"/>
									<polygon class="st3" points="200.8,129.8 200.6,129.5 200.5,129.7 									"/>
									<path class="st3" d="M199.4,132.9c0.3,0.3,0.4,0.6,0.5,1c0-0.4,0.1-0.8,0-1.2C199.7,132.6,199.3,132.4,199.4,132.9z"/>
									<path class="st3" d="M199.5,131.4L199.5,131.4C199.6,131.4,199.6,131.4,199.5,131.4z"/>
									<path class="st3" d="M201.1,137c0,0,0.1-0.1,0.1-0.1L201.1,137L201.1,137z"/>
									<path class="st3" d="M200.1,132.5c0.1-0.3-0.1-0.5-0.3-0.6c0.1,0.2,0.1,0.5,0.2,0.7C200,132.6,200.1,132.6,200.1,132.5z"/>
									<path class="st3" d="M199.6,135.2c0.1-0.2,0.1-0.4,0.2-0.6C199.6,134.8,199.4,135.2,199.6,135.2z"/>
									<path class="st3" d="M199.4,131.5C199.4,131.5,199.3,131.5,199.4,131.5C199.2,131.6,199.3,131.6,199.4,131.5z"/>
									<path class="st3" d="M199.4,131.5c0.1,0.2,0.3,0.3,0.4,0.4c0-0.2-0.1-0.3-0.2-0.5C199.5,131.5,199.4,131.5,199.4,131.5z"/>
									<path class="st3" d="M205.2,135.6c-0.5,0.3-1.3,0.1-0.9-0.6c-0.6-0.2-2.3,0.9-3.1,1.9c0.2-0.1,0.5-0.2,1,0.1
										c0.2-0.3,0.2-1.4,0.8-1.2c0.6,0.5,0.1,0.6-0.1,1c0.5-0.6,1.4,0.1,2.3-0.6l-0.6-0.2C204.8,135.8,205.1,135.8,205.2,135.6z"
										/>
									<path class="st3" d="M200.8,135.8l-0.2-0.2c0,0.3-0.1,0.6-0.4,1.1c0.5,0.3,0.7,0.2,0.9,0.2l-0.4-1.1L200.8,135.8z"/>
									<path class="st3" d="M200.2,134.5c0.7,0,1.1,0.5,1.7-0.1c-0.2-0.6-0.7-0.3-1.1-0.7C201.3,134.9,200.4,133.5,200.2,134.5
										c-0.1-0.2-0.2-0.5-0.3-0.7c0,0.2-0.1,0.5-0.1,0.7c0,0,0,0,0,0l0,0l0,0c0.1-0.1,0.1-0.1,0.1,0c0,0,0,0,0,0
										C200,134.5,200.1,134.5,200.2,134.5c0,0.4-0.2,0.1-0.3,0c0,0-0.1,0-0.1,0l0,0c0.2,0.4,0.5,0.8,0.7,1.1
										C200.6,135.4,200.5,135.1,200.2,134.5z"/>
									<path class="st3" d="M203.5,129.1c-0.1,0-0.1,0-0.2,0C203.4,129.2,203.4,129.2,203.5,129.1z"/>
									<path class="st3" d="M203,129.4c-0.1-0.1-0.3-0.2-0.2-0.4c0.2-0.1,0.3,0.1,0.5,0.1c-0.1-0.2-0.4-0.6-0.8-0.2l0.1,0.1
										c-0.3,0.3-1.2,0.7-1.3,0.6C201.9,129.5,202.3,129.5,203,129.4z"/>
									<path class="st3" d="M201.4,131.5c0.1,0.3,0.2,0.6,0.4,0.9c0.2-0.2,0.3-0.3,0.5-0.5l-0.3,0
										C202.1,131.5,201.7,131.6,201.4,131.5z"/>
									<path class="st3" d="M200.8,137.2l-0.7,0.2c0.4,0,0.8,0,1.1,0L200.8,137.2z"/>
									<polygon class="st3" points="201.5,138.2 201,138.5 201.4,138.6 									"/>
									<path class="st3" d="M232.6,121.3l-0.2-0.2C232.5,121.2,232.5,121.2,232.6,121.3z"/>
									<path class="st3" d="M232.5,122.4l0.3,0.1C232.6,122.4,232.5,122.4,232.5,122.4z"/>
									<path class="st3" d="M224.3,150.8c0.8,0.1,1.8,0.3,1.3-0.1l-0.6-0.4C224.9,150.7,224.6,150.8,224.3,150.8z"/>
									<path class="st3" d="M230.6,134.4c-0.1,0-0.1,0-0.2,0c0.2,0.2,0.3,0.4,0.4,0.5C230.8,134.8,230.7,134.6,230.6,134.4z"/>
									<path class="st3" d="M228.4,132.8l0.6-0.1C228.8,132.7,228.6,132.7,228.4,132.8z"/>
									<path class="st3" d="M230.3,115.6l-0.7,0.2C229.8,116.1,230,115.8,230.3,115.6z"/>
									<path class="st3" d="M208,146.3c0,0.4,0,0.6,0.1,0.8C208.2,146.6,208.5,146,208,146.3z"/>
									<path class="st3" d="M239.6,122.4c-0.1-0.2-0.2-0.3-0.4-0.3C239.3,122.3,239.5,122.4,239.6,122.4z"/>
									<path class="st3" d="M208.7,147.7c0-0.1,0-0.1,0-0.2c-0.2-0.1-0.5-0.2-0.6-0.4C208,147.4,208.1,147.8,208.7,147.7z"/>
									<path class="st3" d="M214.5,110.8c0,0-0.1,0-0.1,0C214.5,110.9,214.5,110.9,214.5,110.8z"/>
									<path class="st3" d="M204.3,115.1c0-0.1,0.1-0.3,0.1-0.4C204.3,114.8,204.3,114.9,204.3,115.1z"/>
									<path class="st3" d="M203.7,141.9C203.6,141.7,203.6,141.9,203.7,141.9L203.7,141.9z"/>
									<path class="st3" d="M205.2,139.5c0.1,0,0.2,0,0.3-0.1C205.4,139.4,205.3,139.5,205.2,139.5z"/>
									<path class="st3" d="M213.2,146.4L213.2,146.4C213.2,146.3,213.2,146.3,213.2,146.4z"/>
									<path class="st3" d="M203.8,141.4c0,0.1,0,0.2,0,0.3C203.8,141.7,203.8,141.6,203.8,141.4z"/>
									<path class="st3" d="M203.5,141.7c0-0.1,0-0.1-0.1-0.2C203.4,141.5,203.3,141.6,203.5,141.7z"/>
									<path class="st3" d="M203.9,142.1c-0.1-0.1-0.1-0.2-0.2-0.3c0,0.1,0,0.1-0.1,0.1C203.8,141.9,203.8,142,203.9,142.1z"/>
									<path class="st3" d="M223.7,104.1C223.7,104,223.7,104,223.7,104.1C223.5,104.1,223.5,104.1,223.7,104.1z"/>
									<path class="st3" d="M222.6,142C222.6,142,222.7,142,222.6,142L222.6,142L222.6,142z"/>
									<path class="st3" d="M222.6,141.2c0.5,0.7,0.4,0.8,0.1,0.9l1.7,0.9L222.6,141.2z"/>
									<path class="st3" d="M232.1,118.6c-0.2,0.2-0.3,0.3-0.5,0.5c-1.1-0.2-0.8-0.5-1.5,0c1-0.2,1.1,0.1,1.3,0.4
										c0.1,0.3,0.1,0.6,1.2,0.5l-0.4,0.3c0-0.1-0.1-0.1-0.1-0.1c-1,0.5,1.6,0.3,1.3,0.9c-0.2,0.2-0.5,0.4-0.7,0.2l0.5,0.5
										c-0.1,0.1-0.4,0.1-0.4-0.1l0.1,0.8l-0.1,0c0.3,0.2,0.7,0.5,0.9,0.7c-0.3,0.1-0.2-0.1-0.5-0.1l0.4,0.6
										c-0.6,0.1-1-0.4-0.8-0.7c-2.1,0,0.4,0.5-1,1l-0.2-0.5c-1.2-0.1-0.8,0.3-1.7,0.5c0.4,0.1,2-0.3,2.4,0.3
										c-0.2,0.1-0.3,0.2,0,0.6c-0.7-0.2-0.6,0.1-0.7,0.4l-0.9-0.4c0.1,0.4,0.6,0.6,1,0.9c-0.2,0.3-1,0.1-1.6-0.1
										c-0.4,0.5,1.3,0.1,1.1,0.9c-0.6,0.3-0.4,0.8-0.2,1.7c-0.5,0.2-0.5-0.4-0.8-0.4l0.5,0.7c-0.1,0.1-0.3-0.1-0.4-0.2
										c0.1,0.4,0.8,0.5,0.8,1.1c0.9,0.7-1.9,0.1-1.2,1.3c-0.3,0-0.5-0.4-0.8-0.5c0.2,1.2,0.1,1,0.7,2.2l-0.9,0.2
										c0.9,0,1.3,0.9,1.7,1.7c0.4,0,0.7,0.1,0.9,0.1l0,1c-0.2,0-0.4-0.2-0.7-0.6c0,0.1,0.1,0.2,0.1,0.2c-0.5,0.1-0.9-0.4-1.2-0.8
										c0.2,0,0.4,0,0.7,0.1c-0.4-0.5-0.9-1-1.4-1.2c0.1,0.1,0.1,0.2,0.1,0.4c-0.1-0.1-0.2-0.2-0.3-0.3c-0.1,0,0,0.2,0.2,0.4
										l-1-0.4l0.4,0.3l-1.1,0.6c0.6,1.2,1.6,2.6,1.4,3.9c-0.5-0.7-1.1-0.7-1.9-1.2c1,0.2,0.1-1,0.6-1.5c-0.3,0.2-0.6-0.1-0.7-0.2
										l0.2,1.4c-0.7-0.4-0.6-0.1-1.1,0c1.4,0.6,0.5,1.2,0.7,1.9c-0.5-0.2-0.9-0.6-0.5-1c-1.3-0.1,1.2,1.6,0,1.6
										c0.1-0.1,0.2-0.1,0-0.3c0.2,0.5-0.5,1-0.8,0.6l0.1-0.1c-0.6,0.7-1.4,2.3-0.4,3.1c-0.1-0.1-1.3-0.9-1.5-1.1
										c1,1.2,1.9,2.5,2.8,3.7c-0.9-0.7-3.4-1.8-3.5-2.7c-0.2,0.1-0.5,0.2-0.4,0.7c0.2,0,1.5,0.6,1.5,0.9c-1.3-0.3-0.8-0.1-2-0.2
										c0.3,0,1.6,1.2,1.4,1.4c-0.2-0.2-1.4-1-1.5-1.2c0.3,0.6,0.6,1.1,0.9,1.7c-0.1-0.4-1.1-0.9-1.6-1.1c0.3,0.2-0.4,0.4-0.4,0.7
										c0.2,0,0.3,0,0.5,0c-0.2,0.1-0.2,0.3-0.1,0.5c0.1,0.2,0.2,0.5,0.4,0.8c0.3,0.6,0.6,1.2,0.2,1.5c-0.1-0.4-1.1-1.9-1.5-2
										c0.2,0.4,0.7,1.4,0.9,2.6c0.1,0.6,0.1,1.1,0.1,1.6c-0.1,0.5-0.2,0.9-0.4,1.2l-0.3-0.4c-0.2,0.3-0.5,0.5-0.7,0.8
										c0.1-0.3,0.2-0.8,0.3-1.3c0.1-0.5,0.2-1,0.2-1.7c0.1-1.2-0.1-2.2-0.3-2.8c-0.3-0.3-0.3-0.5-0.5-0.4
										c-0.2-0.4-0.2-0.7-0.2-0.8c-0.1,0-0.3-0.1-0.4-0.2c0.3,1.1-0.1,1.2,0,2.1c0.2-0.4,0.3-0.8,0.4-1.3c0.2,0.5,0.4,1.3,0.3,1.9
										c0,0.7-0.4,1.2-0.7,1.1c-0.2-0.4,0-1.9-0.1-2.3c0,0.4-0.4,0.7-0.5,0.4c0.1-0.2,0.1-0.4,0.2-0.6c-0.1-0.2-0.2,0.1-0.3,0.4
										c-0.1,0.3-0.3,0.4-0.4-0.1c-0.1-0.1,0.1-1.4-0.1-0.8c-0.3,1.2-1.2,4.9-1.7,5.6c0-0.1-0.3-0.5-0.5-1c-0.2-0.5-0.3-1-0.2-1.4
										c0.1-0.5,0.5-0.9,0.8-1.3c0.4-0.4,0.7-0.8,0.8-1.2c-0.1,0.3-0.4,0.5-0.5,0.6c0-0.3,0.5-0.7,0.2-0.8
										c-0.6,0.9-0.5-0.5-0.6,0.6c-0.5,0-0.2-0.4-0.6-0.7c-0.3,0.6-1.9,1.4-2.4,1.3c0.2-0.2,0.4-0.5,0.4-0.6
										c-0.6-0.7-0.6-1.4-1.1-2.1c0.1-0.2,0.1-0.7,0.6-0.9c-0.2,0-0.6,0.2-0.8,0c0.4-1,0.5,0.4,1.1-0.6c-0.5,0.4-1.1,0-1.6,0
										c-0.6,0.7,0.4,0.8,1,0.9c-1,0.8-2.5,1.2-3.5,0.9c-0.7-0.4,0.4-0.8,0.2-0.8c-0.7-1.2-2.5,0.5-2.5-1c0.4-0.9,1.3-1.1,1.7-1.5
										c0.6,0.3,0.2,1,0.5,1.3l0-0.6c0.3,0,0.7,0.2,0.7,0.5c0.3-0.8-1.4-1.9-1.5-3.2c-0.3,0-0.8-0.1-0.9,0.3l0.3,0.2
										c-0.3,0.7-1.1,0.1-1.1,0.6c-0.7-0.1-1.6,0-1.7-0.8l0.7-0.7c-0.2,0.2-0.2,0.7,0.1,0.7c-0.5,0,0.5-1.6-0.7-1.1l-0.3,0.8
										c-0.7-0.1-1.9-0.1-2-0.8c-0.6,0.8,0.2,0.1-0.5,1c0.9-1.1,0.9,1.4,1.7,0c-0.8,1.1,0,1-0.5,2.1c0.2-0.2,0.4-0.5,0.5,0
										c0.1,0,0.2-0.1,0.3-0.1c0,0,0,0,0,0l0,0c0.1,0,0.1,0,0,0c0-0.2,0.1-0.4,0.2-0.5c0.7-0.2,1.2,0.4,1.6,0.4
										c0.1,0.3-0.4,0.1-0.5,0.5l0.7,0c-0.5,0.5-0.4,1.3-1.2,1l0.4,0.5c-0.1,0.5,0.1,1,0.5,1.1c0.1,0.3,1.1,0.1,0.5,0.2l0.9,0.5
										l-0.1,0.1c0.6,0.8,2.1,0.7,1.9,2.4c0.4,0.1,0.7,0.3,1,0.8l-0.4,0.5c0.2,0.1,0.4,0.5,0.5,0.7c0.2,0.3,0.4,0.5,0.6,0.4
										c-0.4,0.8,0,1.3,0.6,1.6c0.2,0.1,0.3,0.2,0.5,0.3c0.2,0.1,0.4,0.2,0.6,0.3c0.4,0.2,0.7,0.4,1,0.6l0.4-0.7
										c0.7,0.4,1.5,0.6,2.5,0.5l0.1-0.7c0.4-0.2,0.8,0.1,1.4,0.3c0.3,0.1,0.5,0.3,0.9,0.3c0.3,0.1,0.6,0.1,0.9,0.1
										c-0.1,0.3-0.4,0.3-0.6,0.1c0.4,0.4,0.8,0.4,1.2,0.4c0.4-0.1,0.8-0.4,1.1-0.7c0.7-0.6,1.1-1.3,1.9-1.2
										c0.2-0.4,0.4-0.5,0.7-0.5c0,0,0,0.1,0,0.1c0,0,0.1,0,0.1-0.1c0.2,0,0.4,0,0.6,0c-0.2,0-0.4-0.1-0.5,0
										c0.2-0.2,0.5-0.5,0.6-0.9l0.6,0.4c0,0,0,0,0-0.1c0.5-0.1,0-0.5-0.6-0.7c0-0.2,0-0.4,0-0.6c1.1,0.6,0.2-0.9,1.4-0.3
										c-0.3-0.6,0.5-1.4-0.4-2.3c0.1,0.1,0.3,0.1,0.2,0.2c0.3-0.2,0.6-0.3,0.4-0.7l0.8,0.4l-0.7-1.3c0.7,0,1.1,0,1.5,0.8
										c-0.4-1.4,0.1-0.9-0.4-2.1l0.5,0.4c0.1-0.3-0.3-1.1,0.2-0.9c1.3,0.1,1.7-2.5,3.4-3.3c-1.7-0.6,1.1-0.2-0.1-1
										c0.4,0.1,0.7,0.1,0.9,0.5c0-0.9,1.2-0.7,0.4-1.8c0.4,0.1,0.5,0.5,0.7,0.5c0-0.1-0.2-0.4,0.1-0.3c0.3,0.1,0.3,0.3,0.3,0.5
										c0.3-0.7-0.7-1.5-1.8-2.1c0.7-0.1,0.7-0.3,0.2-0.9c0.4,0.1,0.9,0.1,0.8,0.6c0.2-0.2,1.4-1.2,0.6-1.7
										c0.3,0.1,0.3-0.3,0.2-0.4c0.4-0.5,0.5-0.5,0.7-1.1l-0.2,0.1c-0.9-0.8,0-0.6,0.2-1.1l0.1,0.1c1.3-0.7-0.1-0.7,1.3-1.3
										l-0.7-0.3c-1.4-0.8,1.4-0.5,1.1-1.4l-0.5,0.1c-0.4-0.6,2.4-0.2,2.7-0.5c0.2,0,0.2,0.2,0.2,0.4c1.3-0.7-0.8-0.5-0.8-1.3
										c0.5,0,1.2,0.6,1.5,0.1c0.3-0.1,0-0.6-0.2-1.2c-0.2-0.6-0.4-1.1,0.2-1.4c-0.4,0.1-0.9,0.2-1.1-0.3c0-0.3,0.5-0.6,0.8-1
										c0.3-0.4,0.4-0.8-0.2-1.1c0.1-0.1,0.2-0.1,0.3-0.1c-0.3-0.5-0.4-1.5-1.2-1.8c1.3-0.2,0.9-1,0.5-1.6
										c-0.4-0.6-0.9-1.1,0.2-1.3l-0.5-1.4l0.2,0c-0.2-0.9-0.8-1-1.5-1.1c0.1-0.2,0.3-0.2,0.5-0.2c0-0.7-0.1-1.1-0.3-1.3
										c-0.3-0.2-0.7-0.4-1.4-0.5l0.6-0.5c-0.3,0-0.2-0.6-0.3-1.2c-0.1-0.6-0.3-1.3-1.1-1.5c0.1,0,0.2-0.1,0.4-0.1
										c-1.5-0.5-0.4-3.9-2.8-2.4l-1.1-0.1c0.6,0.9-1,0.7-1,1.3c-0.4-0.2-0.1-1.4,0.3-1.1l0,0.2c1.2-0.9-0.5-1.3,0.2-2
										c-0.6-0.6-1.1-1.3-1.5-2c-0.2-0.4-0.4-0.7-0.6-1c-0.2-0.4-0.3-0.5-0.7-1.2c-0.3-0.4-0.5-0.8-0.8-1.2
										c-0.2,0.4-0.4,0.8-0.6,1.1c-0.2-0.3-0.3-0.5-0.5-0.7c0-0.4,0.3-1,0.7-0.4c0.1-0.4-0.2-0.5-0.5-0.5c-0.3,0-0.7,0.2-0.7,0.3
										c-0.4-0.6-0.1-0.8,0.2-0.9c0.3-0.1,0.8,0,0.6-0.2l-0.5-0.3l0,0.2c-0.3,0.1-0.5,0.2-0.7,0.3c-0.2,0.1-0.4,0-0.8-0.1
										c-0.4-0.4,0-0.8-0.2-0.9c0-0.1,0-0.1-0.3-0.1l-0.6-0.2l-0.6-0.1c0.1,0.3,0.2,0.6,0.3,0.9c-0.6,0.4-1.1-0.1-0.7,0.9
										c-0.1-0.4-0.4-0.6-0.9-0.7c-0.4-0.1-1,0-1.5,0.1c-0.5,0.1-1,0.4-1.4,0.5c-0.4,0.2-0.7,0.3-0.8,0.2c-0.2,0.4-0.4,0.8-0.7,1
										c-0.2,0.2-0.5,0.4-0.8,0.5c0.3,0.1,0.9,0.8,0.3,1.1c-1-1.8-1.4-0.1-2.7-0.9c1,0.5-1.2,1.3,0.3,1.9
										c-0.5,0.2-0.5-0.6-1.2-0.7c-0.3,1.4-2.3,1.5-3.1,2.8c0.2,0.2,0.7,0.3,0.8,0.8c-0.5-0.1-1-0.2-1.5-0.3c-0.1,0.3,1.1,1.2,0,1
										c0.2,0.1,0.6,0.2,0.5,0.4c-1.4,0.7-2,2.1-2.7,3.4c-0.7,1.3-1.3,2.6-3.1,3.6c0.6-0.2,0.6,0.1,0.5,0.4c0.2-0.1,0.6,0.2,1,0.3
										c-0.5,0.3-0.9,0.6-1.4,0.9c0.9,0.5-0.3,1.4,0.6,1.8l-0.1-0.4c0.5,0.4,1.2,0.4,1.9,0.3c0.7,0,1.5-0.1,2.2,0.2
										c-0.6-0.4,0-0.6,0.5-0.8c0.5-0.2,1-0.4,0.3-1.1c0.3,0,0.4,0.3,0.7,0.4c-0.5-0.4-0.5-0.7-0.1-1l0.1,0.1
										c0.4-1.2,1.2-1.4,2.3-2.4l-0.7-0.3c0.3-0.2,0.5-0.1,0.7-0.2c-0.7-0.9-0.5,0.7-1.4-0.2c1.5,0.5,1.3-1.8,2.8-1
										c0.3-0.4-0.8-0.4-0.5-0.8l0.4,0.2l-0.4-0.5c0.3-0.2,0.8,0.1,1.1,0.3c-0.1,0,0,0.2-0.1,0.3c0.7,0,0.6-1,0.8-1l-0.5,0.2
										c0.5-1.3,2-1.9,2.3-3.4l-0.3-0.2c0.3-1.1,0.8-0.2,1.4-1.1l0,0.1c0-0.4,0.1-0.7,0.3-0.8c0,0.5,0.8,0.4,0.8,0.9
										c0.2-0.5,0.2-0.7,0.2-0.9c0-0.2-0.2-0.4-0.3-1.2c0.1,0.2,0.2,0.3,0.4,0.5c-0.1-0.5-0.1-0.8,0.2-1.2c-0.1,0.3,0,0.5,0.2,0.7
										c0.1,0.2,0.2,0.4,0.2,0.8c0.5,0.5,0.5,0.1,0.7-0.2c0.2-0.3,0.4-0.5,0.5,0.4c0.2-0.9,0.1-1.1-0.1-1.1
										c-0.2,0-0.4,0.1-0.3-0.1c-0.1-0.3-0.1-0.6,0.1-0.8c0.1-0.3,0.4-0.4,0.5-0.4c0.2,0,0.2,0.5,0.3,1.1c0.1,0.5,0.1,1.1,0.3,1.1
										c0,0-0.1,0.1-0.1,0.1c0,0.5,0.6-0.4,0.4,0.3c0.6-0.9,0.2,0.2,0.9-0.9c-0.2,0-0.4-0.1-0.6-0.1c0.2-0.1,0.5-0.4,0.9-0.5
										c0.3-0.2,0.6,0,0.6,0.5c-0.2,0.1-0.5,0.3-0.7,0.3c-0.1,0.4,0.3,0.1,0.2,0.5c-0.4,0.4-0.6,0.4-0.7,0.3
										c-0.1-0.1-0.3-0.3-0.6,0.1c-0.1,0.3,0.1,0.1,0.2,0.1c0.1,0,0.2,0-0.3,0.5c0.5-0.6,0.6-0.5,0.6-0.4c0,0.2-0.1,0.4,0.4,0.2
										c0.1,0,0.1-0.1,0.2-0.1l-0.6,0.5c0.1,0,0.4-0.2,0.6,0l-0.5,0.1c-0.1,0.1-0.3,0.2-0.4,0.2c0.1,0,0.1-0.1,0.2-0.1
										c0.1,0,0.1,0.1,0.2,0.1c0.1,0.1,0.1,0.3,0.1,0.5c0,0.4,0,0.8,0.4,0.8c-0.8-0.9,0.5-0.8,0.6-1.5c1.7,0.5-0.9,1.9,0.4,2.9
										c-0.2-0.1-0.2-0.9,0.3-0.9c0.1,0.3,0.2,0.8,0,1.2c0.8,0.6,0.4-0.6,1.1-0.6c-0.4,0.9,0.6,0.1,1.1,0.2l-0.5,0.5
										c0.4,1.1,1.3-0.9,1.6,0.3l-1,0.4l0.5,0.2l-0.7,0.5c0.8,0,0.8,0.2,1,0.8c0.3-0.4,1-0.9,1.4-0.5c-0.1,0.5-0.6,0.3-0.1,0.8
										c-0.5,0.2-1,0.5-0.7-0.2c-0.2,0.1-0.4,0.2-0.6,0.3c-0.2,0.6,0.5,0.7,0.6,0.9c0-0.1-0.1-0.2,0-0.3c0.5,0,0.9,0,1.4,0
										c-0.1,0.3-0.4,0.3-0.6,0.4c0.2,0.1,0.5,0,0.7,0.1c-0.5,0.3-1,0.7-1.4,0.6l1,0.2c-0.2,0.2-0.3,0.8-0.6,0.8
										c-0.1,0.5,1.6,0.2,1.5,0.9c0.1,0,0.2,0,0.4,0c0.1,0.5-0.3,1.2,0.7,1.4c-0.3,0.2-0.6,0.5-0.9,0.7c0.4,0.3,1.1-0.9,1.8-0.4
										c0.5,0.4-0.8,0.5-1,0.8c0.6,0,1.8,0.3,1,0.9C232.1,118.9,232.3,118.8,232.1,118.6z M232.4,124.3c-0.1-0.2-0.5-0.5-0.1-0.5
										C233.1,124.1,232.6,124.1,232.4,124.3z M228.8,134.7c-0.2-0.2,0-0.3,0.4-0.3C229.2,134.5,229.1,134.6,228.8,134.7z
										 M205.6,143.3C205.6,143.3,205.7,143.3,205.6,143.3C205.7,143.8,205.7,143.6,205.6,143.3z M205.4,142.6
										c-0.1,0-0.2,0.1-0.3,0.2c0.2-0.1,0.3,0,0.4,0.2C205.7,142.8,205.7,142.6,205.4,142.6z M224.1,98.2c0,0.1,0.1,0.2,0.1,0.2
										C223.8,98.6,223.9,98.4,224.1,98.2z"/>
									<path class="st3" d="M228.6,133c0.1,0,0.3,0.1,0.4,0.2C228.9,133,228.8,133,228.6,133z"/>
									<path class="st3" d="M230.5,115.6C230.5,115.6,230.5,115.6,230.5,115.6c0,0-0.1,0-0.1,0L230.5,115.6z"/>
									<path class="st3" d="M216.8,145.6c0,0.1,0,0.3-0.1,0.4C216.8,145.9,216.8,145.7,216.8,145.6z"/>
									<path class="st3" d="M202.1,140.2l0.4,0.3c-0.2-0.2-0.1-0.3-0.1-0.5C202.3,140.1,202.2,140.4,202.1,140.2z"/>
									<path class="st3" d="M204,134.3c-0.1,0-0.1-0.1-0.2-0.1l-0.3,0.1C203.6,134.6,204,134.7,204,134.3z"/>
									<path class="st3" d="M203.9,138.5c0.5-0.4,0.2-0.5-0.1-0.7c0,0,0,0,0,0C203,138.2,203.4,138.3,203.9,138.5z"/>
									<path class="st3" d="M203.7,137.7c-0.1-0.1-0.1-0.2-0.2-0.3C203.2,137.6,203.5,137.6,203.7,137.7z"/>
									<path class="st3" d="M204.6,142.1c0-0.2-0.7,0.4-0.5,0.2C203.3,142.7,205.4,142.5,204.6,142.1z"/>
									<polygon class="st3" points="205.4,137.1 204.9,137.6 205.5,137.4 									"/>
									<path class="st3" d="M206.4,139.4l-0.1-0.5c-0.1,0.1-0.2,0.1-0.3,0.1C206.2,139.2,206.2,139.6,206.4,139.4z"/>
									<path class="st3" d="M206,138.9c-0.1-0.1-0.2-0.2-0.3-0.2C205.7,138.8,205.8,138.9,206,138.9z"/>
									<polygon class="st3" points="206,137.5 206,137.7 206.1,138.1 									"/>
									<path class="st3" d="M209.6,143.6l0.5,0.3c0.2-0.1,0.3-0.3,0.1-0.4C210,143.5,209.8,143.4,209.6,143.6z"/>
									<path class="st3" d="M210.2,141c0,0.2-0.2,0.3-0.3,0.6l0.7-0.6L210.2,141z"/>
									<path class="st3" d="M211.4,142.1c0.2-0.1,1.1,0.1,0.6-0.4C211.7,141.8,211.2,141.6,211.4,142.1z"/>
									<path class="st3" d="M216.1,148.3l-0.1-0.1l-0.6,1.5C215.6,149.2,215.8,148.8,216.1,148.3z"/>
									<path class="st3" d="M219.5,144.4c-0.4-0.1,0.6,0.8,0.1,0.6c0.2,0.3,0.4,0.2,0.5,0.5C220,145,220.3,145.1,219.5,144.4z"/>
									<path class="st3" d="M220.1,145.4c0,0.1,0,0.2,0.1,0.3C220.2,145.6,220.2,145.5,220.1,145.4z"/>
									<path class="st3" d="M202.9,116.6c-0.2,0.1-0.3,0.3-0.4,0.4c0.2-0.1,0.4-0.1,0.6-0.2L202.9,116.6z"/>
									<path class="st3" d="M203.8,117.8l-1-0.1l0.8,0.5C203.6,118.1,203.6,117.8,203.8,117.8z"/>
									<path class="st3" d="M230.1,124.4l0.2,0.1c0.3,0,0.3,0,0.4-0.1L230.1,124.4z"/>
									<polygon class="st3" points="231.6,120.9 231.6,120.9 232.5,120.8 									"/>
									<path class="st3" d="M230,118.3c0,0.1,0.3,0.2,0.2,0.3C230.1,118.4,231.1,117.9,230,118.3z"/>
								</g>
							</g>
						</g>
					</g>
				</g>
			</g>
			<text transform="matrix(1 0 0 1 221.3324 100.9444)" class="st4 st5 st6">馬祖</text>
		</g>
	</g>
</g>
</svg>
